<svg width="352" height="91" viewBox="0 0 352 91" fill="none" xmlns="http://www.w3.org/2000/svg">
<g clip-path="url(#clip0_718_143)">
<g clip-path="url(#clip1_718_143)">
<path d="M62.3745 48.6609H57.9293C57.1705 48.6404 56.4482 48.3288 55.9118 47.7917C55.3753 47.2539 55.0657 46.5309 55.0472 45.7714C55.028 45.0127 55.3012 44.2752 55.8105 43.7116L58.9666 40.5556C59.3867 40.1408 59.6228 39.5753 59.6228 38.9845C59.6228 38.3945 59.3867 37.8289 58.9666 37.4142L51.7504 30.198C51.3357 29.778 50.7701 29.5418 50.18 29.5418C49.59 29.5418 49.0244 29.778 48.6097 30.198L45.4384 33.3394C45.0203 33.7351 44.4932 33.9957 43.9249 34.0883C43.3573 34.1809 42.7746 34.1002 42.2527 33.8581C41.7301 33.6556 41.279 33.3025 40.9568 32.8434C40.6353 32.3843 40.4567 31.8405 40.4448 31.2796V26.8344C40.4448 25.6073 39.4499 24.6118 38.2222 24.6118H28.0578C26.8301 24.6118 25.8352 25.6073 25.8352 26.8344V31.2796C25.8101 32.0436 25.4905 32.7686 24.9435 33.3024C24.3965 33.8362 23.6642 34.1385 22.9003 34.1451C22.1356 34.1524 21.398 33.8633 20.8417 33.3394L17.6857 30.1834C16.8019 29.3552 15.4274 29.3552 14.5443 30.1834L7.32809 37.3699C6.90803 37.7847 6.67188 38.3503 6.67188 38.9403C6.67188 39.5303 6.90803 40.0966 7.32809 40.5113L10.4841 43.7116C10.8697 44.1197 11.1271 44.6323 11.2243 45.1854C11.3216 45.7384 11.2554 46.3079 11.0325 46.8232C10.8294 47.3596 10.4689 47.8221 9.99793 48.1502C9.52759 48.4783 8.96862 48.6562 8.39512 48.6608H3.94991C2.72218 48.6608 1.72729 49.6557 1.72729 50.8834V61.0928C1.72729 62.3205 2.72218 63.3148 3.94991 63.3148H8.39512C9.16116 63.3366 9.88811 63.6535 10.4252 64.1999C10.9623 64.7463 11.2666 65.4792 11.2752 66.2452C11.2831 67.0112 10.9947 67.7507 10.4695 68.3082L7.32805 71.4648C6.908 71.8791 6.67185 72.4446 6.67185 73.0357C6.67185 73.6255 6.908 74.1911 7.32805 74.606L14.5442 81.8217C14.959 82.242 15.5245 82.4781 16.1146 82.4781C16.7053 82.4781 17.2708 82.242 17.6856 81.8217L20.8417 78.6658C21.2657 78.2804 21.7922 78.0269 22.3578 77.9341C22.9233 77.8427 23.5028 77.9166 24.0274 78.1473C24.554 78.3531 25.0064 78.7108 25.3285 79.1755C25.6507 79.6402 25.8266 80.1903 25.8352 80.7552V85.2003C25.8352 86.4282 26.8301 87.4228 28.0579 87.4228H38.2673C39.495 87.4228 40.4893 86.4282 40.4893 85.2003V80.7552C40.517 79.9993 40.8332 79.2824 41.3716 78.7519C41.9108 78.2213 42.6318 77.9173 43.3879 77.9012C44.1439 77.885 44.8776 78.1587 45.4384 78.6658L48.5944 81.8224C49.0092 82.242 49.5748 82.4781 50.1654 82.4781C50.7555 82.4781 51.3211 82.242 51.7358 81.8224L58.952 74.606C59.8185 73.7378 59.8185 72.3323 58.952 71.4641L55.8105 68.3082C55.415 67.8906 55.1543 67.3633 55.0617 66.795C54.9691 66.2274 55.0498 65.6446 55.2919 65.1227C55.4943 64.6001 55.8476 64.149 56.3067 63.8268C56.7657 63.5054 57.3095 63.3268 57.8704 63.3149H62.3157C63.5427 63.3149 64.5383 62.32 64.5383 61.0922V50.8835C64.5383 49.6782 63.579 48.6926 62.3745 48.6609ZM33.1546 70.132C29.4013 70.132 25.8007 68.6404 23.1469 65.9856C20.4929 63.331 19.0025 59.7304 19.0039 55.9767C19.0052 52.2227 20.4982 48.6228 23.1541 45.9702C25.8101 43.317 29.4112 41.828 33.1644 41.8307C36.9184 41.8333 40.5176 43.3276 43.1695 45.9842C45.8214 48.6408 47.3091 52.2425 47.3052 55.9965C47.3012 59.7465 45.8089 63.3424 43.1556 65.9929C40.5024 68.6424 36.9053 70.132 33.1546 70.132Z" fill="black"/>
<path d="M57.7229 17.292C54.2891 17.3013 50.9756 18.5601 48.4025 20.833C47.9626 21.2259 47.6966 21.7782 47.6629 22.367C47.6298 22.9564 47.8316 23.5345 48.2245 23.9744C49.0428 24.8912 50.4492 24.9706 51.366 24.1524C53.8763 22.1692 57.2016 21.5507 60.2571 22.498C63.3125 23.4459 65.7045 25.8379 66.6525 28.8933C67.5997 31.9488 66.9812 35.2741 64.9981 37.7844C64.1871 38.7032 64.2658 40.1043 65.176 40.9259C66.0948 41.7369 67.4958 41.6575 68.3175 40.748C70.7327 38.0121 71.997 34.448 71.847 30.8012C71.6971 27.1551 70.1436 23.7073 67.5117 21.1785C64.8797 18.6503 61.3724 17.2368 57.7229 17.2327L57.7229 17.292Z" fill="black"/>
<path d="M86.9274 24.1081H82.4823C81.9235 24.0988 81.3788 23.9235 80.9195 23.6046C80.4608 23.2851 80.1071 22.836 79.904 22.3147V22.1811V22.1818C79.6888 21.6711 79.6276 21.1089 79.7278 20.5638C79.8273 20.0194 80.0849 19.5153 80.4675 19.1145L83.6235 15.9584C84.4897 15.0905 84.4897 13.6848 83.6235 12.817L76.3331 5.6008C75.4501 4.77263 74.0756 4.77263 73.1913 5.6008L70.0353 8.75681C69.6345 9.13918 69.1308 9.39648 68.5862 9.49641C68.0411 9.59627 67.4789 9.53541 66.9682 9.32042H66.8346C66.3014 9.11269 65.845 8.7476 65.5248 8.27397C65.2047 7.79966 65.036 7.24002 65.0419 6.66783V2.22261C65.0419 0.994885 64.047 0 62.8194 0H52.6105C51.3828 0 50.388 0.994885 50.388 2.22261V6.66783C50.3787 7.22678 50.2034 7.77122 49.8839 8.23026C49.565 8.68936 49.1159 9.04329 48.5947 9.24631H48.4464C47.951 9.45996 47.404 9.52748 46.8714 9.44079C46.3383 9.35418 45.8408 9.11733 45.4387 8.75681L42.2384 5.60079C41.3547 4.77261 39.9801 4.77261 39.097 5.60079L31.8808 12.8169C31.4608 13.2317 31.2246 13.7973 31.2246 14.3873C31.2246 14.978 31.4608 15.5436 31.8808 15.9584L35.0665 19.1144C35.9423 19.9307 37.3069 19.9062 38.1531 19.0601C38.9998 18.2134 39.0236 16.8487 38.208 15.973L36.5483 14.3874L40.623 10.3127L42.2086 11.8983C43.2399 12.9038 44.5464 13.5811 45.9626 13.8451C47.3788 14.109 48.8414 13.947 50.1656 13.3801H50.284C51.6011 12.8323 52.7263 11.9069 53.5174 10.7202C54.3086 9.53353 54.73 8.13839 54.7292 6.71223V4.44525H60.4935L60.4928 6.66786C60.4968 8.09139 60.9208 9.48181 61.7113 10.6652C62.5025 11.8486 63.6251 12.7726 64.9381 13.3212L65.1008 13.3952C66.4251 13.9614 67.8883 14.1235 69.3043 13.8596C70.7199 13.5963 72.0265 12.9189 73.0588 11.9135L74.6438 10.3279L78.7191 14.4026L77.1334 15.9882C76.126 17.0181 75.4468 18.3246 75.1832 19.7415C74.9196 21.1577 75.0823 22.621 75.6512 23.9446V24.1079C76.2 25.421 77.1233 26.5436 78.3069 27.3348C79.4904 28.1253 80.8804 28.5493 82.3041 28.5532H84.7049V34.3174L82.4823 34.3168C81.056 34.3161 79.6606 34.7375 78.4743 35.5293C77.2874 36.3204 76.362 37.4449 75.814 38.762V38.8811C75.2471 40.2054 75.0857 41.6679 75.3493 43.0835C75.6129 44.4998 76.2908 45.8061 77.2961 46.8375L78.8812 48.423L74.7622 52.6017L73.1772 50.9718C72.7817 50.4816 72.1987 50.1813 71.5699 50.1456C70.9418 50.1106 70.3278 50.3427 69.8806 50.7859C69.4334 51.2284 69.1954 51.8403 69.2243 52.4688C69.2539 53.0978 69.5484 53.6846 70.0353 54.0835L73.1913 57.2395C74.0594 58.1061 75.4649 58.1061 76.3331 57.2395L83.5489 50.0233C84.4157 49.1561 84.4157 47.7497 83.5489 46.8826L80.3929 43.7113C80.0291 43.321 79.7829 42.8354 79.6834 42.3109C79.5839 41.7864 79.6343 41.2446 79.8294 40.7478C79.832 40.6982 79.832 40.6493 79.8294 40.5996C80.0298 40.0586 80.3922 39.5922 80.8663 39.2634C81.3411 38.9346 81.9053 38.76 82.4823 38.762H86.9274C88.1547 38.762 89.15 37.7671 89.15 36.5394V26.3306C89.15 25.1029 88.1547 24.1081 86.9274 24.1081Z" fill="black"/>
</g>
</g>
<path d="M126.248 61.1362H118.872V31.5536H107.756V24.1516H137.338V31.5536H126.248V61.1362ZM147.165 54.3789C147.44 54.4649 147.715 54.5251 147.99 54.5595C148.265 54.5767 148.54 54.5852 148.815 54.5852C149.503 54.5852 150.165 54.4907 150.801 54.3015C151.438 54.1124 152.031 53.8459 152.581 53.502C153.148 53.1409 153.647 52.7111 154.077 52.2125C154.524 51.6966 154.885 51.1292 155.16 50.5102L160.318 55.6943C159.665 56.6228 158.908 57.4567 158.049 58.196C157.206 58.9354 156.286 59.563 155.289 60.0788C154.309 60.5946 153.269 60.9815 152.168 61.2394C151.085 61.5145 149.967 61.6521 148.815 61.6521C146.873 61.6521 145.041 61.291 143.322 60.5688C141.62 59.8467 140.124 58.8408 138.834 57.5512C137.562 56.2617 136.556 54.7314 135.817 52.9604C135.077 51.1722 134.708 49.2121 134.708 47.08C134.708 44.8963 135.077 42.9018 135.817 41.0964C136.556 39.291 137.562 37.7521 138.834 36.4798C140.124 35.2074 141.62 34.2187 143.322 33.5138C145.041 32.8088 146.873 32.4563 148.815 32.4563C149.967 32.4563 151.094 32.5939 152.194 32.869C153.295 33.1441 154.335 33.5396 155.315 34.0554C156.312 34.5712 157.241 35.2074 158.1 35.964C158.96 36.7033 159.717 37.5372 160.37 38.4657L147.165 54.3789ZM150.776 39.8584C150.449 39.7381 150.122 39.6607 149.796 39.6263C149.486 39.5919 149.159 39.5747 148.815 39.5747C147.853 39.5747 146.941 39.7553 146.082 40.1163C145.239 40.4602 144.5 40.9589 143.864 41.6122C143.245 42.2656 142.754 43.0566 142.393 43.985C142.032 44.8963 141.852 45.928 141.852 47.08C141.852 47.3379 141.86 47.6302 141.878 47.9569C141.912 48.2836 141.955 48.6189 142.007 48.9628C142.075 49.2894 142.153 49.6075 142.239 49.917C142.325 50.2265 142.436 50.5016 142.574 50.7423L150.776 39.8584ZM187.863 39.0073L182.705 44.1914C182.447 43.4692 182.095 42.8244 181.648 42.257C181.201 41.6724 180.693 41.1824 180.126 40.7869C179.576 40.3915 178.974 40.0906 178.321 39.8842C177.667 39.6779 176.997 39.5747 176.309 39.5747C175.346 39.5747 174.435 39.7725 173.575 40.1679C172.733 40.5634 171.993 41.1222 171.357 41.8444C170.738 42.5493 170.248 43.3918 169.887 44.3719C169.526 45.352 169.345 46.4352 169.345 47.6216C169.345 48.5845 169.526 49.4872 169.887 50.3297C170.248 51.1722 170.738 51.9116 171.357 52.5477C171.993 53.1839 172.733 53.6826 173.575 54.0436C174.435 54.4047 175.346 54.5852 176.309 54.5852C176.997 54.5852 177.659 54.4907 178.295 54.3015C178.931 54.1124 179.524 53.8459 180.074 53.502C180.642 53.1409 181.14 52.7111 181.57 52.2125C182.017 51.6966 182.378 51.1292 182.654 50.5102L187.812 55.6943C187.158 56.6228 186.402 57.4567 185.542 58.196C184.7 58.9354 183.78 59.563 182.783 60.0788C181.802 60.5946 180.762 60.9815 179.662 61.2394C178.579 61.5145 177.461 61.6521 176.309 61.6521C174.366 61.6521 172.535 61.291 170.815 60.5688C169.113 59.8295 167.617 58.8236 166.328 57.5512C165.055 56.2789 164.049 54.7916 163.31 53.0894C162.571 51.3871 162.201 49.5645 162.201 47.6216C162.201 45.5067 162.571 43.5294 163.31 41.6896C164.049 39.8498 165.055 38.2508 166.328 36.8924C167.617 35.5169 169.113 34.4337 170.815 33.6427C172.535 32.8518 174.366 32.4563 176.309 32.4563C177.461 32.4563 178.587 32.6025 179.688 32.8948C180.805 33.1871 181.863 33.6169 182.86 34.1844C183.874 34.7346 184.803 35.4137 185.645 36.2219C186.505 37.03 187.244 37.9585 187.863 39.0073ZM198.36 61.1362H191.319V22.5267H198.36V34.726C199.203 34.0898 200.071 33.6427 200.965 33.3848C201.859 33.1097 202.771 32.9722 203.699 32.9722C205.401 32.9722 207.001 33.2989 208.496 33.9522C209.992 34.5884 211.29 35.4739 212.391 36.6087C213.509 37.7264 214.385 39.0417 215.022 40.5548C215.675 42.0507 216.002 43.6498 216.002 45.352V61.1362H208.909V45.352H208.961C208.961 44.6298 208.823 43.9506 208.548 43.3145C208.273 42.6611 207.895 42.0937 207.413 41.6122C206.932 41.1308 206.373 40.7525 205.737 40.4774C205.101 40.2023 204.421 40.0648 203.699 40.0648C202.96 40.0648 202.264 40.2023 201.61 40.4774C200.957 40.7525 200.389 41.1308 199.908 41.6122C199.427 42.0937 199.048 42.6611 198.773 43.3145C198.498 43.9506 198.36 44.6298 198.36 45.352V61.1362ZM251.362 61.1362H243.444L229.181 36.7893V61.1362H221.779V24.1516H229.697L243.959 48.5243V24.1516H251.362V61.1362ZM283.781 47.08C283.781 49.1433 283.411 51.069 282.672 52.8572C281.933 54.6282 280.927 56.1671 279.655 57.4739C278.382 58.7634 276.886 59.7865 275.167 60.543C273.465 61.2824 271.633 61.6521 269.673 61.6521C267.73 61.6521 265.899 61.2824 264.18 60.543C262.478 59.7865 260.982 58.7634 259.692 57.4739C258.42 56.1671 257.414 54.6282 256.675 52.8572C255.935 51.069 255.565 49.1433 255.565 47.08C255.565 44.9823 255.935 43.0394 256.675 41.2512C257.414 39.463 258.42 37.9241 259.692 36.6345C260.982 35.3278 262.478 34.3047 264.18 33.5654C265.899 32.826 267.73 32.4563 269.673 32.4563C271.633 32.4563 273.465 32.8088 275.167 33.5138C276.886 34.2016 278.382 35.1902 279.655 36.4798C280.927 37.7521 281.933 39.291 282.672 41.0964C283.411 42.8846 283.781 44.8791 283.781 47.08ZM276.689 47.08C276.689 45.9452 276.499 44.9221 276.121 44.0108C275.76 43.0823 275.261 42.2914 274.625 41.638C273.989 40.9675 273.241 40.4602 272.381 40.1163C271.539 39.7553 270.636 39.5747 269.673 39.5747C268.71 39.5747 267.799 39.7553 266.939 40.1163C266.097 40.4602 265.358 40.9675 264.721 41.638C264.102 42.2914 263.612 43.0823 263.251 44.0108C262.89 44.9221 262.71 45.9452 262.71 47.08C262.71 48.146 262.89 49.1347 263.251 50.046C263.612 50.9573 264.102 51.7482 264.721 52.4188C265.358 53.0894 266.097 53.6224 266.939 54.0178C267.799 54.3961 268.71 54.5852 269.673 54.5852C270.636 54.5852 271.539 54.4047 272.381 54.0436C273.241 53.6826 273.989 53.1753 274.625 52.5219C275.261 51.8686 275.76 51.0776 276.121 50.1492C276.499 49.2207 276.689 48.1976 276.689 47.08ZM317.851 57.3965C316.132 58.858 314.215 59.9842 312.1 60.7752C309.985 61.5489 307.784 61.9358 305.497 61.9358C303.744 61.9358 302.05 61.7036 300.417 61.2394C298.8 60.7923 297.287 60.1562 295.877 59.3308C294.467 58.4883 293.178 57.4911 292.009 56.3391C290.839 55.1699 289.842 53.8803 289.017 52.4704C288.191 51.0432 287.547 49.513 287.082 47.8795C286.635 46.2461 286.412 44.5524 286.412 42.7986C286.412 41.0448 286.635 39.3598 287.082 37.7436C287.547 36.1273 288.191 34.6142 289.017 33.2043C289.842 31.7772 290.839 30.4876 292.009 29.3356C293.178 28.1664 294.467 27.1691 295.877 26.3438C297.287 25.5185 298.8 24.8823 300.417 24.4353C302.05 23.971 303.744 23.7389 305.497 23.7389C307.784 23.7389 309.985 24.1344 312.1 24.9253C314.215 25.699 316.132 26.8167 317.851 28.2782L313.983 34.726C312.865 33.5912 311.576 32.7057 310.114 32.0695C308.653 31.4161 307.114 31.0894 305.497 31.0894C303.881 31.0894 302.359 31.3989 300.932 32.0179C299.522 32.6369 298.284 33.4794 297.218 34.5454C296.152 35.5943 295.31 36.8323 294.691 38.2594C294.072 39.6693 293.762 41.1824 293.762 42.7986C293.762 44.4321 294.072 45.9624 294.691 47.3895C295.31 48.8166 296.152 50.0632 297.218 51.1292C298.284 52.1953 299.522 53.0378 300.932 53.6568C302.359 54.2758 303.881 54.5852 305.497 54.5852C306.426 54.5852 307.329 54.4735 308.205 54.25C309.082 54.0264 309.916 53.7169 310.707 53.3215V42.7986H317.851V57.3965ZM349.497 47.08C349.497 49.1433 349.128 51.069 348.388 52.8572C347.649 54.6282 346.643 56.1671 345.371 57.4739C344.098 58.7634 342.602 59.7865 340.883 60.543C339.181 61.2824 337.35 61.6521 335.389 61.6521C333.447 61.6521 331.615 61.2824 329.896 60.543C328.194 59.7865 326.698 58.7634 325.408 57.4739C324.136 56.1671 323.13 54.6282 322.391 52.8572C321.651 51.069 321.282 49.1433 321.282 47.08C321.282 44.9823 321.651 43.0394 322.391 41.2512C323.13 39.463 324.136 37.9241 325.408 36.6345C326.698 35.3278 328.194 34.3047 329.896 33.5654C331.615 32.826 333.447 32.4563 335.389 32.4563C337.35 32.4563 339.181 32.8088 340.883 33.5138C342.602 34.2016 344.098 35.1902 345.371 36.4798C346.643 37.7521 347.649 39.291 348.388 41.0964C349.128 42.8846 349.497 44.8791 349.497 47.08ZM342.405 47.08C342.405 45.9452 342.216 44.9221 341.837 44.0108C341.476 43.0823 340.978 42.2914 340.341 41.638C339.705 40.9675 338.957 40.4602 338.098 40.1163C337.255 39.7553 336.352 39.5747 335.389 39.5747C334.427 39.5747 333.515 39.7553 332.656 40.1163C331.813 40.4602 331.074 40.9675 330.438 41.638C329.819 42.2914 329.329 43.0823 328.967 44.0108C328.606 44.9221 328.426 45.9452 328.426 47.08C328.426 48.146 328.606 49.1347 328.967 50.046C329.329 50.9573 329.819 51.7482 330.438 52.4188C331.074 53.0894 331.813 53.6224 332.656 54.0178C333.515 54.3961 334.427 54.5852 335.389 54.5852C336.352 54.5852 337.255 54.4047 338.098 54.0436C338.957 53.6826 339.705 53.1753 340.341 52.5219C340.978 51.8686 341.476 51.0776 341.837 50.1492C342.216 49.2207 342.405 48.1976 342.405 47.08Z" fill="black"/>
<defs>
<clipPath id="clip0_718_143">
<rect width="90.7853" height="90.7853" fill="white"/>
</clipPath>
<clipPath id="clip1_718_143">
<rect width="88.0953" height="87.4228" fill="white" transform="translate(1.6814)"/>
</clipPath>
</defs>
</svg>
